<svg xmlns="http://www.w3.org/2000/svg" width="192" height="48" viewBox="0 0 192 48">
  <defs>
    <filter id="softShadow" x="-20%" y="-20%" width="140%" height="140%">
      <feDropShadow dx="0" dy="3" stdDeviation="2" flood-color="#17221f" flood-opacity="0.35"/>
    </filter>
  </defs>
  
      <rect width="192" height="48" fill="none"/>
      <g transform="translate(24 24)">
        <circle r="14" fill="#f2c46d" stroke="#203029" stroke-width="4"/>
        <path d="M0 -8 l8 18 h-16z" fill="#203029"/>
      </g>
      <g transform="translate(72 24)">
        <path d="M0 -17 l15 15 l-15 19 l-15 -19z" fill="#fff0c7" stroke="#203029" stroke-width="4" stroke-linejoin="round"/>
        <circle cx="0" cy="-2" r="4" fill="#f7c46d"/>
        <rect x="-2" y="4" width="4" height="9" rx="2" fill="#f7c46d"/>
      </g>
      <g transform="translate(120 24)">
        <rect x="-13" y="-2" width="26" height="18" rx="4" fill="#7f8783" stroke="#203029" stroke-width="4"/>
        <path d="M-8 -2 v-7 a8 8 0 0 1 16 0 v7" fill="none" stroke="#203029" stroke-width="4"/>
        <path d="M-9 11 l18 -18" stroke="#fff0c7" stroke-width="3" opacity="0.75"/>
      </g>
      <g transform="translate(168 24)">
        <circle r="14" fill="#8bb09a" stroke="#203029" stroke-width="4"/>
        <path d="M-7 0 l5 6 l10 -12" fill="none" stroke="#fff0c7" stroke-width="4" stroke-linecap="round" stroke-linejoin="round"/>
      </g>
    
</svg>
